<?xml version="1.0" encoding="UTF-8"?>
<svg width="1582"
    height="1562"
    viewBox="0 0 1582 1562"
    xmlns="http://www.w3.org/2000/svg">
    <path id="Path"
        fill="none"
        stroke="#fffffe"
        stroke-width="1.041667"
        opacity="0.229996"
        d="M 1466.904175 68.529541 L 703.054138 835.025391 L 113.84166 159.479614 L 113.84166 68.912964 L 1466.904175 68.529541 Z" />
    <path id="path1"
        fill="#62776a"
        stroke="none"
        opacity="0.899994"
        d="M 1552.791626 750.662476 L 792.462524 750.662476 L 792.462524 26.770874 L 1552.791626 26.770874 Z" />
    <path id="Path-copy"
        fill="#ffffff"
        stroke="none"
        opacity="0.899994"
        d="M 1522 1507 L 77.462524 1507 L 77.462524 219.770874 L 1522 219.770874 Z" />
    <path id="path2"
        fill="#373835"
        stroke="none"
        d="M 1477.700439 706.892883 L 958.117065 706.892883 L 1479.404663 198.517944 Z M 876.987915 798.784546 L 1476.01709 795.084595 L 1476.01709 1443.313721 L 1296.604614 1443.313721 C 1248.296265 1443.313721 1209.479614 1419.884521 1185.70459 1391.24707 L 766.137939 898.847046 Z M 116.867081 1447.12207 L 129.575409 306.005371 L 1037.171265 1411.330444 C 1048.983643 1425.567871 1038.858765 1447.12207 1020.358765 1447.12207 Z M 0.200417 131.817993 L 0.200417 1562.397095 L 1581.867188 1562.397095 L 1581.867188 -0.402954 L 132.421249 -0.402954 C 59.400421 -0.402954 0.200417 58.797119 0.200417 131.817993" />
</svg>
